<svg width="166" height="33" viewBox="0 0 166 33" fill="none" xmlns="http://www.w3.org/2000/svg">
<path fill-rule="evenodd" clip-rule="evenodd" d="M0 21.907C0 21.9498 1.12179 21.9845 2.49274 21.9845H4.98547L5.39793 20.9904L5.80996 19.9967L9.79759 19.9959L13.7856 19.9954L14.1876 20.99L14.5892 21.9845H17.0828C18.4541 21.9845 19.5767 21.9493 19.578 21.9062C19.5814 21.7659 9.93032 0.755847 9.86458 0.755847C9.82941 0.755847 0 21.907 0 21.907ZM21.6696 11.3603V22L26.2497 21.9573C30.092 21.9213 30.922 21.8865 31.4052 21.7433C36.5816 20.2065 38.4391 14.3682 34.9427 10.6242L34.222 9.85241L34.477 9.34949C36.1461 6.05307 34.7358 2.28011 31.3809 1.06614L30.6201 0.791023L26.145 0.755848L21.6696 0.720673V11.3603ZM38.8378 11.3587V21.9845H45.2235H51.6092V19.7337V17.4829H47.4742H43.3392V15.3368V13.1907H45.8516H48.364V10.9399V8.68911H45.8516H43.3392V6.96176V5.23441H47.4742H51.6092V2.98361V0.732816H45.2235H38.8378V11.3587ZM52.8654 2.98361V5.23441H55.6395H58.4137V13.6095V21.9845H60.6644H62.9151V13.6095V5.23441H65.7416H68.568V2.98361V0.732816H60.7167H52.8654V2.98361ZM70.243 2.98361V5.23441H73.0171H75.7912V13.6095V21.9845H78.0419H80.2926V13.6095V5.23441H83.1191H85.9456V2.98361V0.732816H78.0943H70.243V2.98361ZM87.7252 11.3587V21.9845H94.1109H100.497V19.7337V17.4829H96.3616H92.2266V15.3368V13.1907H94.739H97.2514V10.9399V8.68911H94.739H92.2266V6.96176V5.23441H96.3616H100.497V2.98361V0.732816H94.1109H87.7252V11.3587ZM102.486 11.3587V21.9845H104.789H107.092V18.4737V14.9633L108.144 14.993L109.196 15.0227L111.043 18.5038L112.89 21.9845H115.435C116.834 21.9845 117.979 21.9447 117.979 21.8961C117.979 21.8472 117.084 20.1169 115.99 18.0503C113.751 13.8226 113.876 14.1434 114.375 13.8741C117.987 11.929 118.621 5.84872 115.532 2.77759C113.63 0.886081 112.995 0.732816 107.068 0.732816H102.486V11.3587ZM120.073 11.3603V22L124.653 21.9573C128.495 21.9213 129.325 21.8865 129.808 21.7433C134.985 20.2065 136.842 14.3682 133.346 10.6242L132.625 9.85241L132.88 9.34949C134.549 6.05307 133.139 2.28011 129.784 1.06614L129.023 0.791023L124.548 0.755848L120.073 0.720673V11.3603ZM137.555 11.3587V21.9845H139.805H142.056V11.3587V0.732816H139.805H137.555V11.3587ZM145.406 11.2896V21.8459L149.777 21.9163C155.001 22.0004 156.186 21.8907 158.067 21.1495C167.558 17.408 167.452 4.75745 157.9 1.32786C156.354 0.772597 155.853 0.732816 150.419 0.732816H145.406V11.2896ZM29.7516 5.34328C30.3295 5.50366 30.5677 5.87091 30.5677 6.60163C30.5677 7.81308 29.9028 8.16567 27.6177 8.16567H26.171V6.70004V5.23441L27.7676 5.23482C28.6453 5.23524 29.5385 5.28424 29.7516 5.34328ZM111.488 5.45216C113.462 6.34577 113.552 8.92362 111.651 10.1003L111.139 10.4165L109.115 10.4508L107.092 10.4847V7.85956V5.23441L109.055 5.2365C110.802 5.23859 111.069 5.26246 111.488 5.45216ZM128.155 5.34328C128.732 5.50366 128.971 5.87091 128.971 6.60163C128.971 7.81308 128.306 8.16567 126.021 8.16567H124.574V6.70004V5.23441L126.171 5.23482C127.048 5.23524 127.941 5.28424 128.155 5.34328ZM156.241 5.58532C160.79 7.16653 162.071 12.2406 158.757 15.5495C157.25 17.0554 156.22 17.3711 152.551 17.4536L149.907 17.5126V11.3645V5.2164L152.656 5.25534C155.341 5.29303 155.422 5.30057 156.241 5.58532ZM10.8235 13.3938C11.3163 14.5135 11.7037 15.4448 11.6848 15.4641C11.6656 15.483 10.7996 15.4859 9.7599 15.47L7.86972 15.4415L8.82863 13.3293C9.35624 12.1677 9.81936 11.2489 9.85788 11.2879C9.89599 11.3268 10.3306 12.2745 10.8235 13.3938ZM30.574 12.9407C32.04 13.3758 32.6643 14.9972 31.8378 16.2208C31.1632 17.2195 30.6452 17.3925 28.134 17.4574L26.171 17.508V15.14V12.7719H28.0888C29.5469 12.7719 30.1423 12.8122 30.574 12.9407ZM128.977 12.9407C130.443 13.3758 131.067 14.9972 130.241 16.2208C129.566 17.2195 129.048 17.3925 126.537 17.4574L124.574 17.508V15.14V12.7719H126.492C127.95 12.7719 128.545 12.8122 128.977 12.9407Z" fill="white"/>
<rect y="29" width="19" height="4" fill="#0084FF"/>
</svg>
